<svg width="726" height="729" viewBox="0 0 726 729" fill="none" xmlns="http://www.w3.org/2000/svg">
<path d="M531.389 14.595C579.023 49.6843 618.332 95.3548 645.389 148.516C665.522 188.074 678.871 231.779 683.818 278.359C706.078 487.972 549.751 676.415 334.652 699.257C232.912 710.062 136.247 681.883 60.2608 627" stroke="white" stroke-width="2" stroke-linecap="round" stroke-linejoin="round" stroke-dasharray="7 7"/>
<path opacity="0.3" d="M532.5 41C543.822 41 553 31.8218 553 20.5C553 9.17816 543.822 0 532.5 0C521.178 0 512 9.17816 512 20.5C512 31.8218 521.178 41 532.5 41Z" fill="#F00A25"/>
<path d="M532.5 34C539.956 34 546 27.9558 546 20.5C546 13.0442 539.956 7 532.5 7C525.044 7 519 13.0442 519 20.5C519 27.9558 525.044 34 532.5 34Z" fill="#DA2128"/>
<path d="M537 20.5H528M532.5 25V16V25Z" stroke="white" stroke-width="2"/>
<path opacity="0.3" d="M460.5 684C471.822 684 481 674.822 481 663.5C481 652.178 471.822 643 460.5 643C449.178 643 440 652.178 440 663.5C440 674.822 449.178 684 460.5 684Z" fill="#F00A25"/>
<path d="M460.5 677C467.956 677 474 670.956 474 663.5C474 656.044 467.956 650 460.5 650C453.044 650 447 656.044 447 663.5C447 670.956 453.044 677 460.5 677Z" fill="#DA2128"/>
<path d="M465 663.5H456M460.5 668V659V668Z" stroke="white" stroke-width="2"/>
<path opacity="0.3" d="M60.5 650C71.8218 650 81 640.822 81 629.5C81 618.178 71.8218 609 60.5 609C49.1782 609 40 618.178 40 629.5C40 640.822 49.1782 650 60.5 650Z" fill="#F00A25"/>
<path d="M60.5 643C67.9558 643 74 636.956 74 629.5C74 622.044 67.9558 616 60.5 616C53.0442 616 47 622.044 47 629.5C47 636.956 53.0442 643 60.5 643Z" fill="#DA2128"/>
<path d="M65 629.5H56M60.5 634V625V634Z" stroke="white" stroke-width="2"/>
<path opacity="0.3" d="M685.5 379C696.822 379 706 369.822 706 358.5C706 347.178 696.822 338 685.5 338C674.178 338 665 347.178 665 358.5C665 369.822 674.178 379 685.5 379Z" fill="#F00A25"/>
<path d="M685.5 372C692.956 372 699 365.956 699 358.5C699 351.044 692.956 345 685.5 345C678.044 345 672 351.044 672 358.5C672 365.956 678.044 372 685.5 372Z" fill="#DA2128"/>
<path d="M690 358.5H681M685.5 363V354V363Z" stroke="white" stroke-width="2"/>
</svg>
